<svg width="113" height="21" viewBox="0 0 113 21" fill="none" xmlns="http://www.w3.org/2000/svg">
<path d="M0.234375 0.703125C0.234375 0.703125 0.210938 0.539062 0.210938 0.257812V0H12.8203L12.8438 0.46875C12.8906 1.52344 12.9609 2.88281 13.0078 3.9375C12.8438 3.9375 12.7266 3.91406 12.7266 3.91406L12.4922 3.46875C11.6719 1.89844 9.46875 0.9375 6.96094 0.9375H5.50781V7.00781C7.78125 6.91406 9.60938 6.39844 10.2891 5.625L10.5 5.39062C10.5 5.39062 10.7812 5.36719 11.0391 5.36719V9.86719C10.7812 9.86719 10.5 9.84375 10.5 9.84375L10.2891 9.5625C9.63281 8.67188 7.78125 8.10938 5.50781 7.99219V14.0625H6.96094C9.46875 14.0625 11.7656 13.0547 12.8906 11.5312L13.2188 11.0859C13.2188 11.0859 13.3125 11.0625 13.4766 11.0625C13.2656 12.1172 12.9844 13.4766 12.7734 14.5312L12.6797 15H0.210938V14.7422C0.210938 14.4609 0.234375 14.2969 0.234375 14.2969L0.445312 14.2734C1.28906 14.1797 1.82812 12.75 1.82812 10.6641V4.33594C1.82812 2.25 1.28906 0.820312 0.445312 0.726562L0.234375 0.703125ZM14.4609 10.1953C14.4609 6.53906 16.875 4.19531 20.6719 4.19531C23.1562 4.19531 24.8438 5.10938 24.9609 6.5625C24.9609 7.47656 24.375 8.0625 23.5078 8.0625C22.5703 8.0625 21.9375 7.40625 21.8438 6.375C21.7734 5.625 21.1875 5.15625 20.3203 5.15625C18.8906 5.15625 17.9766 6.60938 17.9766 8.88281C17.9766 11.4141 19.3359 13.5703 22.3594 13.3125C22.9219 13.2656 24.0938 12.75 24.6094 11.5781L24.9844 11.9062C23.8828 14.2031 21.3047 15.1172 19.7344 15.1172C16.5234 15.1172 14.4609 13.1953 14.4609 10.1953ZM31.5469 15.1172C27.9141 15.1172 25.6172 12.9844 25.6172 9.65625C25.6172 6.32812 27.9141 4.19531 31.5469 4.19531C35.1328 4.19531 37.4297 6.32812 37.4297 9.65625C37.4297 12.9844 35.1328 15.1172 31.5469 15.1172ZM29.2266 9.65625C29.2266 12.5156 30.1406 14.3438 31.5469 14.3438C32.9531 14.3438 33.8672 12.5156 33.8672 9.65625C33.8672 6.79688 32.9531 4.96875 31.5469 4.96875C30.1406 4.96875 29.2266 6.79688 29.2266 9.65625ZM37.8047 15V14.7422C37.8047 14.4609 37.8281 14.2969 37.8281 14.2969L38.0391 14.2734C38.9297 14.1797 39.4219 12.6328 39.4219 10.5C39.4219 7.59375 39.1875 7.03125 38.0391 6.39844L37.8281 6.28125C37.8281 6.28125 37.8047 6.1875 37.8047 6.04688L42.0469 4.3125H42.7031V5.92969C43.3125 5.08594 44.7891 4.19531 46.6875 4.19531C48.0469 4.19531 48.7734 4.94531 49.0547 6.23438C49.875 5.36719 51.7734 4.19531 53.5078 4.19531C55.3594 4.19531 56.0391 5.60156 56.0391 7.80469V10.6641C56.0391 12.75 56.5547 14.1797 57.3984 14.2734L57.6328 14.2969V15H51.0938V14.2969L51.375 14.2734C52.2188 14.2031 52.7344 12.75 52.7344 10.6641V8.15625C52.7344 7.00781 52.0781 5.76562 51.0938 5.76562C50.5312 5.76562 49.875 6.14062 49.1953 7.17188C49.2188 7.38281 49.2188 7.59375 49.2188 7.80469V10.6641C49.2188 12.75 49.7344 14.2031 50.5781 14.2734L50.8828 14.2969V15H44.5312V14.2969L44.6484 14.2734C45.4922 14.1094 45.9141 12.75 45.9141 10.6641V8.15625C45.9141 6.98438 45.3281 5.64844 44.3672 5.64844C43.8984 5.64844 43.3359 6 42.7031 6.89062V10.6641C42.7031 12.75 43.2422 14.1797 44.0859 14.2734L44.3203 14.2969V15H37.8047ZM58.3359 14.1797L58.2188 11.3672C58.2891 11.3672 58.3594 11.3906 58.5 11.3906C58.9688 12.6797 60.2109 14.4609 61.9219 14.4609C63.0469 14.4609 63.7734 13.8281 63.7734 12.8438C63.7734 12.1875 63 11.4609 61.8047 10.9922C59.6953 10.1719 58.3125 8.71875 58.3125 7.5C58.3125 5.48438 60.1875 3.96094 63.2344 3.96094C64.1953 3.96094 65.7891 4.3125 66.5156 5.13281L66.4219 7.71094H66.0703C65.4609 6.51562 64.7109 4.80469 63.3281 4.73438C61.9453 4.66406 61.0781 5.50781 61.0547 6.32812C61.0312 7.125 62.3203 7.66406 64.3125 8.46094C65.7891 9.04688 66.7031 10.3359 66.7031 11.6016C66.7031 13.8281 64.7578 15.2344 61.6875 15.2344C60.3984 15.2344 59.1094 14.8125 58.3359 14.1797ZM66.3047 5.01562V4.3125H72.9141V4.57031C72.9141 4.85156 72.8906 5.01562 72.8906 5.01562L72.6797 5.03906C72 5.10938 72.1641 6.35156 73.0547 8.17969L74.8125 11.4141L76.9688 6.65625C76.2188 5.60156 75.7031 5.08594 75.0703 5.01562V4.3125H81.7031V4.57031C81.7031 4.85156 81.6797 5.01562 81.6797 5.01562L81.4453 5.03906C80.6484 5.10938 80.8359 6.5625 81.9844 8.64844C82.4766 9.53906 82.9922 10.4766 83.4609 11.3906L84.7266 8.64844C85.6875 6.5625 85.6641 5.10938 84.75 5.03906L84.4453 5.01562V4.57031C84.4453 4.40625 84.4219 4.3125 84.4219 4.3125H89.0391V5.01562L88.7812 5.03906C87.8906 5.10938 86.6484 6.58594 85.5938 8.64844L82.2656 15.2344H81.7266L78.1641 8.64844C77.9297 8.15625 77.6484 7.71094 77.3906 7.28906L73.6172 15.2344H73.0781L69.5391 8.64844C68.4375 6.58594 67.2422 5.10938 66.5156 5.03906L66.3047 5.01562ZM88.4297 12.3516C88.4297 9.60938 92.2734 9.07031 94.3359 8.97656V7.14844C94.3359 5.95312 94.0078 5.17969 93.4922 5.17969C92.4609 5.17969 91.9688 6.30469 92.1797 7.94531C91.5469 8.10938 91.0547 8.20312 90.5391 8.20312C90.0469 8.20312 89.5312 8.10938 88.8516 7.94531C88.5469 5.74219 90.8203 4.125 94.2422 4.24219C96.4219 4.3125 97.8281 5.67188 97.8281 7.92188V11.9766C97.8281 12.9844 98.0156 13.6406 98.7422 13.6406C99.2812 13.6406 99.5625 13.4531 99.7266 13.1484L100.078 13.5938C99.5156 14.625 98.5781 15.2812 96.4922 15.2812C95.5547 15.2812 94.8281 14.8594 94.5703 14.1328C93.7734 14.6484 92.5781 15.1641 91.3359 15.1641C89.5781 15.1641 88.4297 13.8047 88.4297 12.3516ZM91.7344 11.8125C91.7344 12.8906 92.5312 13.5 93.375 13.5C93.7031 13.5 94.0547 13.4062 94.3594 13.1953L94.3359 9.63281C93.0469 9.63281 91.7344 10.2422 91.7344 11.8125ZM99.1172 20.8594V20.6016C99.1172 20.3203 99.1406 20.1562 99.1406 20.1562L99.3516 20.1328C100.195 20.0391 100.711 18.6094 100.711 16.5234V10.5C100.711 7.59375 100.5 7.03125 99.3516 6.39844L99.1406 6.28125C99.1406 6.28125 99.1172 6.1875 99.1172 6.04688L103.359 4.3125H104.016V5.39062C104.508 4.75781 105.891 4.19531 107.531 4.19531C110.18 4.19531 112.266 6.72656 112.125 10.3359C111.984 13.6641 109.031 15.3516 106.5 15.3516C105.562 15.3516 104.672 15.1172 104.016 14.625V16.1484C104.016 18.2344 104.531 20.0391 105.375 20.1328L105.609 20.1562C105.609 20.1562 105.633 20.3203 105.633 20.6016V20.8594H99.1172ZM104.953 5.74219C104.484 5.83594 104.156 6.09375 104.016 6.30469V11.625C104.016 11.7891 104.016 11.9297 104.039 12.0703V12.8672C104.367 13.6641 105.07 14.1797 105.727 14.2031C107.367 14.25 108.422 13.0312 108.422 10.9219C108.422 7.89844 106.828 5.36719 104.953 5.74219Z" fill="#190041"/>
</svg>
